<svg viewBox="0 0 108 108" xmlns="http://www.w3.org/2000/svg">
  <!-- Background circle with gradient -->
  <defs>
    <linearGradient id="bgGradient" x1="0%" y1="0%" x2="100%" y2="100%">
      <stop offset="0%" style="stop-color:#667eea;stop-opacity:1" />
      <stop offset="100%" style="stop-color:#764ba2;stop-opacity:1" />
    </linearGradient>
    <linearGradient id="basketGradient" x1="0%" y1="0%" x2="100%" y2="100%">
      <stop offset="0%" style="stop-color:#ffffff;stop-opacity:0.95" />
      <stop offset="100%" style="stop-color:#f8f9ff;stop-opacity:0.9" />
    </linearGradient>
    <linearGradient id="handleGradient" x1="0%" y1="0%" x2="100%" y2="100%">
      <stop offset="0%" style="stop-color:#4facfe;stop-opacity:1" />
      <stop offset="100%" style="stop-color:#00f2fe;stop-opacity:1" />
    </linearGradient>
  </defs>
  
  <!-- Main background -->
  <circle cx="54" cy="54" r="54" fill="url(#bgGradient)"/>
  
  <!-- Shopping basket body -->
  <path d="M24 45 L84 45 L80 85 C79.5 87.5 77.5 89 75 89 L33 89 C30.5 89 28.5 87.5 28 85 Z" 
        fill="url(#basketGradient)" 
        stroke="#5a67d8" 
        stroke-width="2"/>
  
  <!-- Basket handle -->
  <path d="M35 45 C35 35 43 27 54 27 C65 27 73 35 73 45" 
        fill="none" 
        stroke="url(#handleGradient)" 
        stroke-width="4" 
        stroke-linecap="round"/>
  
  <!-- Shopping items (abstract geometric shapes) -->
  <!-- Item 1 - Circle (apple/fruit) -->
  <circle cx="45" cy="60" r="6" fill="#ff6b6b" opacity="0.8"/>
  
  <!-- Item 2 - Rectangle (box/package) -->
  <rect x="55" y="55" width="10" height="8" rx="2" fill="#4ecdc4" opacity="0.8"/>
  
  <!-- Item 3 - Triangle (bottle/container) -->
  <path d="M40 70 L46 70 L43 78 Z" fill="#45b7d1" opacity="0.8"/>
  
  <!-- Item 4 - Small circle (small item) -->
  <circle cx="60" cy="72" r="4" fill="#f9ca24" opacity="0.8"/>
  
  <!-- Subtle highlight on basket rim -->
  <ellipse cx="54" cy="45" rx="30" ry="2" fill="#ffffff" opacity="0.3"/>
  
  <!-- Handle highlight -->
  <path d="M37 45 C37 36 44 29 54 29 C64 29 71 36 71 45" 
        fill="none" 
        stroke="#ffffff" 
        stroke-width="2" 
        stroke-linecap="round" 
        opacity="0.4"/>
</svg>